<?xml version="1.0"?>
<svg xmlns="http://www.w3.org/2000/svg" version="1" viewBox="0 0 24 24" enable-background="new 0 0 24 24">
    <defs
     id="defs2111">
    <style
       id="current-color-scheme"
       type="text/css">
      .ColorScheme-Text {
        color:#4d4d4d;
      }
      </style>
  </defs>
    <path
        class="ColorScheme-Text"
        style="fill:currentColor;fill-opacity:1;stroke:none"
        d="M 12 2 C 6.4666667 2 2 6.4666667 2 12 C 2 17.533333 6.4666667 22 12 22 C 17.533333 22 22 17.533333 22 12 C 22 6.4666667 17.533333 2 12 2 z M 12 4 C 16.466667 4 20 7.5333333 20 12 C 20 16.466667 16.466667 20 12 20 C 7.5333333 20 4 16.466667 4 12 C 4 7.5333333 7.5333333 4 12 4 z M 9.96875 5.21875 C 9.7852783 5.2260742 9.6125 5.26875 9.40625 5.3125 C 8.40625 5.5125 7.5875 6.4875 7.6875 7.6875 C 8.0875 9.7875 10.1 9.4875 10.5 10.6875 C 10.9 10.2875 11.4 10 12 10 C 12.4 10 12.7 10.1125 13 10.3125 C 13 8.90625 12.720825 5.1088867 9.96875 5.21875 z M 17.09375 10.3125 C 15.585742 10.1375 14.86875 11.58125 13.90625 11.40625 C 14.00625 11.60625 14 11.8 14 12 C 14 12.8 13.60625 13.4125 12.90625 13.8125 C 14.20625 14.5125 18 16.3875 19 13.1875 C 19.4 12.1875 18.9125 11 17.8125 10.5 C 17.5625 10.4 17.30918 10.3375 17.09375 10.3125 z M 12 11 C 11.447715 11 11 11.447715 11 12 C 11 12.552285 11.447715 13 12 13 C 12.552285 13 13 12.552285 13 12 C 13 11.447715 12.552285 11 12 11 z M 10 11.90625 C 8.7 12.60625 5.20625 15 7.40625 17.5 C 8.10625 18.2 9.4125 18.5125 10.3125 17.8125 C 12.0125 16.5125 10.8 14.80625 11.5 13.90625 C 10.6 13.70625 10 12.9 10 12 L 10 11.90625 z"
        />
</svg>
